<?xml version="1.0" encoding="utf-8"?>
<!-- Generator: Adobe Illustrator 16.0.0, SVG Export Plug-In . SVG Version: 6.00 Build 0)  -->
<!DOCTYPE svg PUBLIC "-//W3C//DTD SVG 1.1//EN" "http://www.w3.org/Graphics/SVG/1.1/DTD/svg11.dtd">
<svg version="1.1" id="Layer_1" xmlns="http://www.w3.org/2000/svg" xmlns:xlink="http://www.w3.org/1999/xlink" x="0px" y="0px"
	 width="481.144px" height="376.05px" viewBox="0 0 481.144 376.05" enable-background="new 0 0 481.144 376.05"
	 xml:space="preserve">
<polygon fill="#003B71" points="399.761,193.939 287.208,193.939 287.208,81.379 331.931,81.379 331.931,59.758 265.552,59.758 
	265.552,215.591 421.386,215.591 421.386,151.277 399.761,151.277 "/>
<polygon fill="#7DAED3" points="353.558,59.758 353.558,81.379 384.39,81.379 336.624,129.182 352.38,144.914 399.761,97.539 
	399.761,129.735 421.386,129.735 421.386,59.758 "/>
<g>
	<defs>
		<rect id="SVGID_1_" width="481.144" height="376.05"/>
	</defs>
	<clipPath id="SVGID_2_">
		<use xlink:href="#SVGID_1_"  overflow="visible"/>
	</clipPath>
	<path clip-path="url(#SVGID_2_)" fill="#003B71" d="M97.55,180.066H79.474v-6.693h25.776v38.716
		c-7.928,3.463-15.629,4.805-24.214,4.805c-24.548,0-39.28-16.185-39.28-40.279c0-23.656,15.183-40.279,39.28-40.279
		c5.915,0,15.619,1.006,20.864,3.682l-0.89,7.14c-6.032-3.351-13.167-4.131-19.974-4.131c-20.19,0-31.58,14.284-31.58,33.588
		c0,19.637,11.051,33.584,31.58,33.584c4.798,0,12.83-0.562,16.514-2.795V180.066z"/>
	<path clip-path="url(#SVGID_2_)" fill="#003B71" d="M122.646,205.624c4.573,2.9,9.931,4.574,17.187,4.574
		c9.594,0,17.518-4.912,17.518-15.955c0-15.289-35.704-17.185-35.704-37.603c0-12.496,10.93-20.305,24.659-20.305
		c3.789,0,9.928,0.557,15.28,2.565l-1.226,7.033c-3.452-1.902-8.928-2.906-14.168-2.906c-8.034,0-16.846,3.349-16.846,13.394
		c0,15.619,35.699,15.726,35.699,38.484c0,15.735-13.503,21.989-25.546,21.989c-7.587,0-13.508-1.567-17.634-3.352L122.646,205.624z
		"/>
	<path clip-path="url(#SVGID_2_)" fill="#003B71" d="M204.32,137.672h8.694l30.912,77.88h-8.035l-8.365-20.86h-39.279l-8.36,20.86
		h-7.483L204.32,137.672z M208.114,145.037l-16.963,42.953h33.801L208.114,145.037z"/>
	<polygon clip-path="url(#SVGID_2_)" fill="#7DAED3" points="41.756,237.068 78.808,237.068 78.808,243.761 49.456,243.761 
		49.456,271.547 78.808,271.547 78.808,278.238 49.456,278.238 49.456,314.952 41.756,314.952 	"/>
	<path clip-path="url(#SVGID_2_)" fill="#7DAED3" d="M122.986,235.727c23.429,0,34.477,19.192,34.249,40.279
		c-0.214,23.883-11.822,40.286-34.249,40.286c-22.43,0-34.028-16.403-34.25-40.286C88.507,254.919,99.559,235.727,122.986,235.727
		 M96.43,276.006c0,16.521,8.257,33.587,26.556,33.587c18.298,0,26.553-17.066,26.553-33.587c0-16.513-8.255-33.584-26.553-33.584
		C104.687,242.422,96.43,259.493,96.43,276.006"/>
	<path clip-path="url(#SVGID_2_)" fill="#7DAED3" d="M173.078,237.067h20.082c13.839,0,22.874,5.915,22.874,20.198
		c0,10.041-7.699,16.733-17.295,17.965v0.222c6.239,0.781,7.587,4.121,10.039,9.375l13.279,30.125h-8.476l-11.271-26.338
		c-4.467-10.041-7.811-10.377-15.179-10.377h-6.35v36.715h-7.703V237.067z M180.781,271.547h8.142
		c9.033,0,19.412-3.457,19.412-14.281c0-12.724-9.033-13.504-19.637-13.504h-7.917V271.547z"/>
	<path clip-path="url(#SVGID_2_)" fill="#7DAED3" d="M288.331,245.771c-4.912-2.57-11.938-3.351-17.404-3.351
		c-20.197,0-31.578,14.284-31.578,33.584c0,19.644,11.048,33.588,31.578,33.588c5.135,0,12.941-0.674,17.404-3.346l0.445,6.689
		c-4.242,2.57-12.943,3.355-17.85,3.355c-24.553,0-39.278-16.183-39.278-40.287c0-23.652,15.178-40.279,39.278-40.279
		c4.574,0,13.834,0.785,17.85,2.902L288.331,245.771z"/>
	<polygon clip-path="url(#SVGID_2_)" fill="#7DAED3" points="302.608,237.068 340.771,237.068 340.771,243.761 310.31,243.761 
		310.31,271.547 340.771,271.547 340.771,278.238 310.31,278.238 310.31,308.257 340.771,308.257 340.771,314.952 302.608,314.952 	
		"/>
</g>
</svg>
